<svg width="32" height="128" viewBox="0 0 32 128" fill="none" xmlns="http://www.w3.org/2000/svg">
<path d="M16 32C24.8366 32 32 24.8366 32 16C32 7.16344 24.8366 0 16 0C7.16344 0 0 7.16344 0 16C0 24.8366 7.16344 32 16 32Z" fill="#666666"/>
<path fill-rule="evenodd" clip-rule="evenodd" d="M15.3957 23.0173H16.6515C16.6515 23.0173 17.0308 22.9757 17.2245 22.7669C17.4028 22.5752 17.3971 22.2153 17.3971 22.2153C17.3971 22.2153 17.3725 20.5302 18.1546 20.2821C18.9255 20.0377 19.9155 21.9107 20.9648 22.6308C21.7583 23.1759 22.3612 23.0564 22.3612 23.0564L25.1669 23.0173C25.1669 23.0173 26.6346 22.9269 25.9387 21.7729C25.8816 21.6785 25.5334 20.9193 23.8526 19.3591C22.0934 17.7263 22.329 17.9904 24.4481 15.1659C25.7387 13.4458 26.2547 12.3956 26.0936 11.9458C25.9398 11.5174 24.9906 11.6307 24.9906 11.6307L21.8316 11.6503C21.8316 11.6503 21.5974 11.6184 21.4237 11.7222C21.254 11.824 21.1448 12.0613 21.1448 12.0613C21.1448 12.0613 20.6448 13.3924 19.978 14.5244C18.5713 16.9131 18.0088 17.0392 17.779 16.8909C17.2442 16.5452 17.3777 15.5022 17.3777 14.7612C17.3777 12.4464 17.7288 11.4812 16.694 11.2314C16.3506 11.1484 16.0979 11.0936 15.2197 11.0848C14.0926 11.0731 13.1385 11.0882 12.5983 11.3529C12.2389 11.5288 11.9617 11.921 12.1306 11.9435C12.3393 11.9715 12.8122 12.071 13.0629 12.4124C13.3866 12.8528 13.3752 13.8419 13.3752 13.8419C13.3752 13.8419 13.5612 16.5669 12.9409 16.9054C12.515 17.1376 11.9309 16.6636 10.6768 14.4965C10.0342 13.3864 9.54908 12.1594 9.54908 12.1594C9.54908 12.1594 9.45553 11.9301 9.28868 11.8075C9.08617 11.6589 8.80324 11.6115 8.80324 11.6115L5.80135 11.6312C5.80135 11.6312 5.35071 11.6438 5.18528 11.8397C5.03811 12.014 5.17359 12.3745 5.17359 12.3745C5.17359 12.3745 7.52376 17.8729 10.1848 20.6437C12.6248 23.1842 15.3957 23.0173 15.3957 23.0173Z" fill="white"/>
<path d="M16 80C24.8366 80 32 72.8366 32 64C32 55.1634 24.8366 48 16 48C7.16344 48 0 55.1634 0 64C0 72.8366 7.16344 80 16 80Z" fill="#666666"/>
<path d="M9.32756 64.8076C8.76564 65.9122 9.40364 66.4402 10.8593 67.3422C12.0968 68.1067 13.8064 68.3862 14.9046 68.4981L13.9842 69.3836C12.6798 70.6256 11.4423 71.8283 10.577 72.6616C9.31748 73.8688 11.3451 75.8057 12.6037 74.6241L16.011 71.3379C17.3154 72.5928 18.5657 73.7955 19.4182 74.6287C20.6777 75.8149 22.7045 73.8945 21.4587 72.6661L18.0515 69.3882L17.1183 68.5027C18.2302 68.3908 19.9141 68.0947 21.137 67.3467L21.1361 67.3458C22.5917 66.4392 23.2297 65.9122 22.6761 64.8076C22.3415 64.1806 21.4395 63.6562 20.2386 64.5628C20.2386 64.5628 18.6171 65.8049 16.0018 65.8049C13.3856 65.8049 11.765 64.5628 11.765 64.5628C10.5641 63.6517 9.65848 64.1806 9.32756 64.8076Z" fill="white"/>
<path d="M15.9991 64.1302C19.1872 64.1302 21.7906 61.6387 21.7906 58.5715C21.7906 55.4915 19.1872 53 15.9991 53C12.81 53 10.2067 55.4915 10.2067 58.5715C10.2067 61.6387 12.81 64.1302 15.9991 64.1302ZM15.9991 55.8224C17.5657 55.8224 18.8435 57.0517 18.8435 58.5715C18.8435 60.0785 17.5657 61.3078 15.9991 61.3078C14.4325 61.3078 13.1547 60.0785 13.1547 58.5715C13.1537 57.0508 14.4316 55.8224 15.9991 55.8224Z" fill="white"/>
<path d="M20.7688 104.514H11.2313C9.70899 104.514 8.47046 105.752 8.47046 107.275V116.812C8.47046 118.334 9.70899 119.573 11.2313 119.573H20.7688C22.2911 119.573 23.53 118.335 23.53 116.812V107.275C23.53 105.752 22.2914 104.514 20.7688 104.514ZM16 117.001C13.2666 117.001 11.0427 114.777 11.0427 112.043C11.0427 109.31 13.2666 107.086 16 107.086C18.7338 107.086 20.9577 109.31 20.9577 112.043C20.9577 114.777 18.7334 117.001 16 117.001ZM21.1171 108.111C20.47 108.111 19.9438 107.585 19.9438 106.938C19.9438 106.291 20.47 105.765 21.1171 105.765C21.7638 105.765 22.29 106.291 22.29 106.938C22.29 107.585 21.7638 108.111 21.1171 108.111Z" fill="#666666"/>
<path d="M16 109.181C14.4221 109.181 13.1372 110.465 13.1372 112.043C13.1372 113.621 14.4221 114.906 16 114.906C17.5787 114.906 18.8625 113.621 18.8625 112.043C18.8625 110.465 17.5783 109.181 16 109.181Z" fill="#666666"/>
<path d="M16 96C7.1638 96 0 103.164 0 112C0 120.836 7.1638 128 16 128C24.8362 128 32 120.836 32 112C32 103.164 24.8362 96 16 96ZM25.6245 116.812C25.6245 119.49 23.4465 121.668 20.7687 121.668H11.2313C8.55384 121.668 6.37554 119.49 6.37554 116.812V107.274C6.37554 104.597 8.55384 102.419 11.2313 102.419H20.7687C23.4465 102.419 25.6245 104.597 25.6245 107.274V116.812Z" fill="#666666"/>
</svg>
