<svg width="48" height="49" viewBox="0 0 48 49" fill="none" xmlns="http://www.w3.org/2000/svg">
<mask id="path-1-outside-1" maskUnits="userSpaceOnUse" x="-0.989746" y="-0.500011" width="50" height="50" fill="black">
<rect fill="white" x="-0.989746" y="-0.500011" width="50" height="50"/>
<path d="M2.40258 40.996L9.71458 42.828C9.54608 43.6408 9.50827 44.4753 9.60258 45.3C9.60258 47.0673 11.0353 48.5 12.8026 48.5H35.2026C36.9699 48.5 38.4026 47.0673 38.4026 45.3C38.4835 44.4739 38.4376 43.6402 38.2666 42.828L45.6026 40.996C47.3167 40.5672 48.3589 38.8302 47.9306 37.116L47.5466 35.516C47.242 34.4374 46.3953 33.5968 45.3146 33.3C45.9626 31.996 45.5626 31.092 45.1786 29.564C44.955 28.6689 44.3495 27.9171 43.5226 27.508C44.5066 26.092 44.0426 25.02 43.6266 23.356C43.3962 22.4643 42.7927 21.7151 41.9706 21.3C42.4983 20.5463 42.6761 19.602 42.4586 18.708C42.0426 17.052 41.9466 15.876 40.4186 15.092C40.9463 14.3383 41.1241 13.394 40.9066 12.5C40.5146 10.9 40.4106 9.78799 39.0026 8.98799C38.4054 8.64915 37.7178 8.50381 37.0346 8.57199C36.3555 7.90031 35.4712 7.47508 34.5226 7.36399L31.8986 7.05999L31.2026 2.77199C30.8506 0.755989 26.0266 0.499989 24.0026 0.499989C21.9786 0.499989 17.1546 0.763988 16.8026 2.77199L16.0986 7.02799L13.4826 7.33199C12.5319 7.44433 11.6455 7.86924 10.9626 8.53999C9.3612 8.34656 7.86619 9.37523 7.47458 10.94C7.08258 12.54 6.67458 13.572 7.47458 14.94C7.64258 15.212 7.68258 15.052 7.41058 15.212C6.05858 16.012 5.95458 17.156 5.56258 18.732C5.34765 19.6162 5.51929 20.55 6.03458 21.3C5.20937 21.7133 4.6028 22.4628 4.37058 23.356C3.95458 25.012 3.49858 26.092 4.47458 27.508C3.65775 27.9178 3.0551 28.6573 2.81858 29.54C2.44258 31.036 2.01858 31.988 2.67458 33.292C1.60029 33.612 0.771792 34.4709 0.490576 35.556L0.0985761 37.156C-0.306175 38.8497 0.717681 40.5561 2.40258 40.996ZM11.2026 45.3V43.7C11.2026 42.8163 11.9189 42.1 12.8026 42.1H21.6026V46.9H12.8026C11.9189 46.9 11.2026 46.1836 11.2026 45.3ZM18.1546 4.43599C20.8026 5.58799 27.2026 5.58799 29.8506 4.43599L30.4026 7.69999C30.2906 8.14799 28.0906 9.29999 24.0026 9.29999C19.9146 9.29999 17.7226 8.17999 17.6026 7.69999L18.1546 4.43599ZM26.4026 35.7H33.6026C34.4862 35.7 35.2026 36.4163 35.2026 37.3V38.9C35.2026 39.7836 34.4862 40.5 33.6026 40.5H26.4026V35.7ZM34.4026 30.9V32.5C34.4026 33.3836 33.6862 34.1 32.8026 34.1H26.4026V29.3H32.8026C33.6862 29.3 34.4026 30.0163 34.4026 30.9ZM26.4026 27.7V22.9H32.8026C33.3161 22.9005 33.7982 23.1475 34.0986 23.564C34.4826 24.068 34.4026 24.42 34.4026 26.1C34.4026 26.9836 33.6862 27.7 32.8026 27.7H26.4026ZM36.0026 18.1V19.7C36.0026 20.5836 35.2862 21.3 34.4026 21.3H26.4026V16.5H34.4026C35.2862 16.5 36.0026 17.2163 36.0026 18.1ZM12.8026 38.9V37.3C12.8026 36.4163 13.5189 35.7 14.4026 35.7H21.6026V40.5H14.4026C13.5189 40.5 12.8026 39.7836 12.8026 38.9ZM21.6026 21.3H13.6026C12.7189 21.3 12.0026 20.5836 12.0026 19.7V18.1C12.0026 17.2163 12.7189 16.5 13.6026 16.5H21.6026V21.3ZM13.6026 26.1V24.5C13.6026 23.6163 14.3189 22.9 15.2026 22.9H21.6026V27.7H15.2026C14.3189 27.7 13.6026 26.9836 13.6026 26.1ZM21.6026 29.3V34.1H15.2026C14.3189 34.1 13.6026 33.3836 13.6026 32.5V30.9C13.6026 30.0163 14.3189 29.3 15.2026 29.3H21.6026ZM23.2026 46.9V10.9H24.8026V46.9H23.2026ZM36.8026 45.3C36.8026 46.1836 36.0862 46.9 35.2026 46.9H26.4026V42.1H35.2026C36.0862 42.1 36.8026 42.8163 36.8026 43.7V45.3ZM45.9626 35.948L46.3466 37.5C46.4507 37.9116 46.387 38.3478 46.1695 38.7124C45.9519 39.077 45.5983 39.3402 45.1866 39.444L37.4026 41.388C37.0735 41.0753 36.6804 40.8379 36.2506 40.692C36.6126 40.1647 36.8051 39.5396 36.8026 38.9C36.8617 38.1367 36.8348 37.3693 36.7226 36.612L44.0026 34.788C44.4164 34.679 44.8567 34.7403 45.2251 34.9583C45.5934 35.1763 45.859 35.5327 45.9626 35.948ZM44.0026 31.484C44.22 32.3387 43.7047 33.2083 42.8506 33.428C37.2506 34.86 38.5626 34.508 36.6026 35.028C36.3094 35.0946 36.003 35.0723 35.7226 34.964C35.564 34.8254 35.3925 34.7021 35.2106 34.596C35.7224 34.0179 36.0042 33.2721 36.0026 32.5C36.0623 31.7394 36.0354 30.9745 35.9226 30.22L41.6826 28.772C42.0942 28.6678 42.5304 28.7315 42.895 28.9491C43.2596 29.1667 43.5228 29.5203 43.6266 29.932L44.0026 31.484ZM42.4026 25.284C42.6144 26.1386 42.0961 27.0037 41.2426 27.22L35.2026 28.764C35.1228 28.6682 35.0344 28.5798 34.9386 28.5C35.6202 27.889 36.0075 27.0153 36.0026 26.1C36.084 25.2742 36.0409 24.4409 35.8746 23.628L40.1306 22.564C40.9805 22.3455 41.8477 22.8523 42.0746 23.7L42.4026 25.284ZM40.8506 19.068C40.9547 19.4796 40.891 19.9158 40.6735 20.2804C40.4559 20.645 40.1023 20.9082 39.6906 21.012L36.7946 21.732C37.7626 20.636 37.6026 19.7 37.6026 18.1C37.6008 17.6084 37.4858 17.1239 37.2666 16.684L38.5786 16.356C39.4332 16.1441 40.2983 16.6625 40.5146 17.516L40.8506 19.068ZM38.9626 11.316L39.3546 12.86C39.4587 13.2716 39.395 13.7078 39.1775 14.0724C38.9599 14.437 38.6063 14.7002 38.1946 14.804L37.9786 14.86C38.2535 14.3858 38.3996 13.8481 38.4026 13.3C38.5032 12.3021 38.4246 11.2942 38.1706 10.324C38.568 10.5216 38.8579 10.8847 38.9626 11.316ZM36.1226 9.87599C36.9706 10.852 36.8026 11.804 36.8026 13.3C36.8026 14.1836 36.0862 14.9 35.2026 14.9H26.4026V10.764C28.8026 10.492 30.9866 9.79599 31.7226 8.61199L34.3306 8.91599C35.0264 9.00243 35.6651 9.34463 36.1226 9.87599ZM29.3786 2.89999C27.2426 3.96399 20.8026 3.96399 18.6266 2.89999C20.8026 1.83599 27.2026 1.83599 29.3786 2.89999ZM13.6746 8.91599L16.2826 8.61199C17.0186 9.79599 19.1786 10.492 21.6026 10.764V14.9H12.8026C11.9189 14.9 11.2026 14.1836 11.2026 13.3V11.7C11.2045 10.2806 12.2654 9.08583 13.6746 8.91599ZM8.65058 12.86L9.03458 11.308C9.14641 10.8718 9.43683 10.503 9.83458 10.292C9.53058 11.212 9.60258 11.7 9.60258 13.3C9.59846 13.8616 9.74487 14.4141 10.0266 14.9L9.81058 14.844C9.38993 14.7408 9.02907 14.4715 8.81046 14.0976C8.59185 13.7237 8.53416 13.2772 8.65058 12.86ZM7.05058 19.068L7.44258 17.516C7.54637 17.1043 7.80955 16.7507 8.17418 16.5331C8.5388 16.3155 8.97495 16.2518 9.38658 16.356L10.6906 16.684C10.4908 17.1288 10.3924 17.6125 10.4026 18.1C10.4026 19.636 10.2346 20.636 11.1546 21.74L8.25058 21.012C7.83885 20.9082 7.48527 20.645 7.2677 20.2804C7.05012 19.9158 6.98641 19.4796 7.09058 19.068H7.05058ZM5.53858 25.3L5.92258 23.7C6.02461 23.2868 6.28707 22.9313 6.6519 22.7121C7.01672 22.4929 7.45385 22.4281 7.86658 22.532L12.1306 23.604C11.961 24.4246 11.9178 25.2663 12.0026 26.1C12.0078 27.0216 12.4101 27.8963 13.1066 28.5C13.0108 28.5798 12.9224 28.6682 12.8426 28.764L6.69858 27.22C5.85289 27.0036 5.33674 26.1493 5.53858 25.3ZM4.00258 31.492L4.39458 29.892C4.49836 29.4803 4.76155 29.1267 5.12617 28.9091C5.4908 28.6915 5.92695 28.6278 6.33858 28.732L12.1066 30.18C12.0447 30.4153 12.0098 30.6568 12.0026 30.9C12.0026 32.428 11.8346 33.46 12.8026 34.564C12.6206 34.6701 12.4492 34.7934 12.2906 34.932C12.0148 35.0362 11.7147 35.0585 11.4266 34.996L5.17058 33.396C4.32934 33.1831 3.81117 32.3384 4.00258 31.492ZM1.65058 37.5L2.04258 35.948C2.14615 35.5327 2.41178 35.1763 2.7801 34.9583C3.14841 34.7403 3.58871 34.679 4.00258 34.788L11.2986 36.612C11.2424 36.8373 11.2103 37.0679 11.2026 37.3C11.2026 38.796 11.0666 39.7 11.7546 40.692C11.3227 40.8387 10.9272 41.076 10.5946 41.388L2.81058 39.444C2.39885 39.3402 2.04527 39.077 1.8277 38.7124C1.61012 38.3478 1.54641 37.9116 1.65058 37.5Z"/>
</mask>
<path d="M2.40258 40.996L9.71458 42.828C9.54608 43.6408 9.50827 44.4753 9.60258 45.3C9.60258 47.0673 11.0353 48.5 12.8026 48.5H35.2026C36.9699 48.5 38.4026 47.0673 38.4026 45.3C38.4835 44.4739 38.4376 43.6402 38.2666 42.828L45.6026 40.996C47.3167 40.5672 48.3589 38.8302 47.9306 37.116L47.5466 35.516C47.242 34.4374 46.3953 33.5968 45.3146 33.3C45.9626 31.996 45.5626 31.092 45.1786 29.564C44.955 28.6689 44.3495 27.9171 43.5226 27.508C44.5066 26.092 44.0426 25.02 43.6266 23.356C43.3962 22.4643 42.7927 21.7151 41.9706 21.3C42.4983 20.5463 42.6761 19.602 42.4586 18.708C42.0426 17.052 41.9466 15.876 40.4186 15.092C40.9463 14.3383 41.1241 13.394 40.9066 12.5C40.5146 10.9 40.4106 9.78799 39.0026 8.98799C38.4054 8.64915 37.7178 8.50381 37.0346 8.57199C36.3555 7.90031 35.4712 7.47508 34.5226 7.36399L31.8986 7.05999L31.2026 2.77199C30.8506 0.755989 26.0266 0.499989 24.0026 0.499989C21.9786 0.499989 17.1546 0.763988 16.8026 2.77199L16.0986 7.02799L13.4826 7.33199C12.5319 7.44433 11.6455 7.86924 10.9626 8.53999C9.3612 8.34656 7.86619 9.37523 7.47458 10.94C7.08258 12.54 6.67458 13.572 7.47458 14.94C7.64258 15.212 7.68258 15.052 7.41058 15.212C6.05858 16.012 5.95458 17.156 5.56258 18.732C5.34765 19.6162 5.51929 20.55 6.03458 21.3C5.20937 21.7133 4.6028 22.4628 4.37058 23.356C3.95458 25.012 3.49858 26.092 4.47458 27.508C3.65775 27.9178 3.0551 28.6573 2.81858 29.54C2.44258 31.036 2.01858 31.988 2.67458 33.292C1.60029 33.612 0.771792 34.4709 0.490576 35.556L0.0985761 37.156C-0.306175 38.8497 0.717681 40.5561 2.40258 40.996ZM11.2026 45.3V43.7C11.2026 42.8163 11.9189 42.1 12.8026 42.1H21.6026V46.9H12.8026C11.9189 46.9 11.2026 46.1836 11.2026 45.3ZM18.1546 4.43599C20.8026 5.58799 27.2026 5.58799 29.8506 4.43599L30.4026 7.69999C30.2906 8.14799 28.0906 9.29999 24.0026 9.29999C19.9146 9.29999 17.7226 8.17999 17.6026 7.69999L18.1546 4.43599ZM26.4026 35.7H33.6026C34.4862 35.7 35.2026 36.4163 35.2026 37.3V38.9C35.2026 39.7836 34.4862 40.5 33.6026 40.5H26.4026V35.7ZM34.4026 30.9V32.5C34.4026 33.3836 33.6862 34.1 32.8026 34.1H26.4026V29.3H32.8026C33.6862 29.3 34.4026 30.0163 34.4026 30.9ZM26.4026 27.7V22.9H32.8026C33.3161 22.9005 33.7982 23.1475 34.0986 23.564C34.4826 24.068 34.4026 24.42 34.4026 26.1C34.4026 26.9836 33.6862 27.7 32.8026 27.7H26.4026ZM36.0026 18.1V19.7C36.0026 20.5836 35.2862 21.3 34.4026 21.3H26.4026V16.5H34.4026C35.2862 16.5 36.0026 17.2163 36.0026 18.1ZM12.8026 38.9V37.3C12.8026 36.4163 13.5189 35.7 14.4026 35.7H21.6026V40.5H14.4026C13.5189 40.5 12.8026 39.7836 12.8026 38.9ZM21.6026 21.3H13.6026C12.7189 21.3 12.0026 20.5836 12.0026 19.7V18.1C12.0026 17.2163 12.7189 16.5 13.6026 16.5H21.6026V21.3ZM13.6026 26.1V24.5C13.6026 23.6163 14.3189 22.9 15.2026 22.9H21.6026V27.7H15.2026C14.3189 27.7 13.6026 26.9836 13.6026 26.1ZM21.6026 29.3V34.1H15.2026C14.3189 34.1 13.6026 33.3836 13.6026 32.5V30.9C13.6026 30.0163 14.3189 29.3 15.2026 29.3H21.6026ZM23.2026 46.9V10.9H24.8026V46.9H23.2026ZM36.8026 45.3C36.8026 46.1836 36.0862 46.9 35.2026 46.9H26.4026V42.1H35.2026C36.0862 42.1 36.8026 42.8163 36.8026 43.7V45.3ZM45.9626 35.948L46.3466 37.5C46.4507 37.9116 46.387 38.3478 46.1695 38.7124C45.9519 39.077 45.5983 39.3402 45.1866 39.444L37.4026 41.388C37.0735 41.0753 36.6804 40.8379 36.2506 40.692C36.6126 40.1647 36.8051 39.5396 36.8026 38.9C36.8617 38.1367 36.8348 37.3693 36.7226 36.612L44.0026 34.788C44.4164 34.679 44.8567 34.7403 45.2251 34.9583C45.5934 35.1763 45.859 35.5327 45.9626 35.948ZM44.0026 31.484C44.22 32.3387 43.7047 33.2083 42.8506 33.428C37.2506 34.86 38.5626 34.508 36.6026 35.028C36.3094 35.0946 36.003 35.0723 35.7226 34.964C35.564 34.8254 35.3925 34.7021 35.2106 34.596C35.7224 34.0179 36.0042 33.2721 36.0026 32.5C36.0623 31.7394 36.0354 30.9745 35.9226 30.22L41.6826 28.772C42.0942 28.6678 42.5304 28.7315 42.895 28.9491C43.2596 29.1667 43.5228 29.5203 43.6266 29.932L44.0026 31.484ZM42.4026 25.284C42.6144 26.1386 42.0961 27.0037 41.2426 27.22L35.2026 28.764C35.1228 28.6682 35.0344 28.5798 34.9386 28.5C35.6202 27.889 36.0075 27.0153 36.0026 26.1C36.084 25.2742 36.0409 24.4409 35.8746 23.628L40.1306 22.564C40.9805 22.3455 41.8477 22.8523 42.0746 23.7L42.4026 25.284ZM40.8506 19.068C40.9547 19.4796 40.891 19.9158 40.6735 20.2804C40.4559 20.645 40.1023 20.9082 39.6906 21.012L36.7946 21.732C37.7626 20.636 37.6026 19.7 37.6026 18.1C37.6008 17.6084 37.4858 17.1239 37.2666 16.684L38.5786 16.356C39.4332 16.1441 40.2983 16.6625 40.5146 17.516L40.8506 19.068ZM38.9626 11.316L39.3546 12.86C39.4587 13.2716 39.395 13.7078 39.1775 14.0724C38.9599 14.437 38.6063 14.7002 38.1946 14.804L37.9786 14.86C38.2535 14.3858 38.3996 13.8481 38.4026 13.3C38.5032 12.3021 38.4246 11.2942 38.1706 10.324C38.568 10.5216 38.8579 10.8847 38.9626 11.316ZM36.1226 9.87599C36.9706 10.852 36.8026 11.804 36.8026 13.3C36.8026 14.1836 36.0862 14.9 35.2026 14.9H26.4026V10.764C28.8026 10.492 30.9866 9.79599 31.7226 8.61199L34.3306 8.91599C35.0264 9.00243 35.6651 9.34463 36.1226 9.87599ZM29.3786 2.89999C27.2426 3.96399 20.8026 3.96399 18.6266 2.89999C20.8026 1.83599 27.2026 1.83599 29.3786 2.89999ZM13.6746 8.91599L16.2826 8.61199C17.0186 9.79599 19.1786 10.492 21.6026 10.764V14.9H12.8026C11.9189 14.9 11.2026 14.1836 11.2026 13.3V11.7C11.2045 10.2806 12.2654 9.08583 13.6746 8.91599ZM8.65058 12.86L9.03458 11.308C9.14641 10.8718 9.43683 10.503 9.83458 10.292C9.53058 11.212 9.60258 11.7 9.60258 13.3C9.59846 13.8616 9.74487 14.4141 10.0266 14.9L9.81058 14.844C9.38993 14.7408 9.02907 14.4715 8.81046 14.0976C8.59185 13.7237 8.53416 13.2772 8.65058 12.86ZM7.05058 19.068L7.44258 17.516C7.54637 17.1043 7.80955 16.7507 8.17418 16.5331C8.5388 16.3155 8.97495 16.2518 9.38658 16.356L10.6906 16.684C10.4908 17.1288 10.3924 17.6125 10.4026 18.1C10.4026 19.636 10.2346 20.636 11.1546 21.74L8.25058 21.012C7.83885 20.9082 7.48527 20.645 7.2677 20.2804C7.05012 19.9158 6.98641 19.4796 7.09058 19.068H7.05058ZM5.53858 25.3L5.92258 23.7C6.02461 23.2868 6.28707 22.9313 6.6519 22.7121C7.01672 22.4929 7.45385 22.4281 7.86658 22.532L12.1306 23.604C11.961 24.4246 11.9178 25.2663 12.0026 26.1C12.0078 27.0216 12.4101 27.8963 13.1066 28.5C13.0108 28.5798 12.9224 28.6682 12.8426 28.764L6.69858 27.22C5.85289 27.0036 5.33674 26.1493 5.53858 25.3ZM4.00258 31.492L4.39458 29.892C4.49836 29.4803 4.76155 29.1267 5.12617 28.9091C5.4908 28.6915 5.92695 28.6278 6.33858 28.732L12.1066 30.18C12.0447 30.4153 12.0098 30.6568 12.0026 30.9C12.0026 32.428 11.8346 33.46 12.8026 34.564C12.6206 34.6701 12.4492 34.7934 12.2906 34.932C12.0148 35.0362 11.7147 35.0585 11.4266 34.996L5.17058 33.396C4.32934 33.1831 3.81117 32.3384 4.00258 31.492ZM1.65058 37.5L2.04258 35.948C2.14615 35.5327 2.41178 35.1763 2.7801 34.9583C3.14841 34.7403 3.58871 34.679 4.00258 34.788L11.2986 36.612C11.2424 36.8373 11.2103 37.0679 11.2026 37.3C11.2026 38.796 11.0666 39.7 11.7546 40.692C11.3227 40.8387 10.9272 41.076 10.5946 41.388L2.81058 39.444C2.39885 39.3402 2.04527 39.077 1.8277 38.7124C1.61012 38.3478 1.54641 37.9116 1.65058 37.5Z" fill="#1E1E1E"/>
<path d="M2.40258 40.996L9.71458 42.828C9.54608 43.6408 9.50827 44.4753 9.60258 45.3C9.60258 47.0673 11.0353 48.5 12.8026 48.5H35.2026C36.9699 48.5 38.4026 47.0673 38.4026 45.3C38.4835 44.4739 38.4376 43.6402 38.2666 42.828L45.6026 40.996C47.3167 40.5672 48.3589 38.8302 47.9306 37.116L47.5466 35.516C47.242 34.4374 46.3953 33.5968 45.3146 33.3C45.9626 31.996 45.5626 31.092 45.1786 29.564C44.955 28.6689 44.3495 27.9171 43.5226 27.508C44.5066 26.092 44.0426 25.02 43.6266 23.356C43.3962 22.4643 42.7927 21.7151 41.9706 21.3C42.4983 20.5463 42.6761 19.602 42.4586 18.708C42.0426 17.052 41.9466 15.876 40.4186 15.092C40.9463 14.3383 41.1241 13.394 40.9066 12.5C40.5146 10.9 40.4106 9.78799 39.0026 8.98799C38.4054 8.64915 37.7178 8.50381 37.0346 8.57199C36.3555 7.90031 35.4712 7.47508 34.5226 7.36399L31.8986 7.05999L31.2026 2.77199C30.8506 0.755989 26.0266 0.499989 24.0026 0.499989C21.9786 0.499989 17.1546 0.763988 16.8026 2.77199L16.0986 7.02799L13.4826 7.33199C12.5319 7.44433 11.6455 7.86924 10.9626 8.53999C9.3612 8.34656 7.86619 9.37523 7.47458 10.94C7.08258 12.54 6.67458 13.572 7.47458 14.94C7.64258 15.212 7.68258 15.052 7.41058 15.212C6.05858 16.012 5.95458 17.156 5.56258 18.732C5.34765 19.6162 5.51929 20.55 6.03458 21.3C5.20937 21.7133 4.6028 22.4628 4.37058 23.356C3.95458 25.012 3.49858 26.092 4.47458 27.508C3.65775 27.9178 3.0551 28.6573 2.81858 29.54C2.44258 31.036 2.01858 31.988 2.67458 33.292C1.60029 33.612 0.771792 34.4709 0.490576 35.556L0.0985761 37.156C-0.306175 38.8497 0.717681 40.5561 2.40258 40.996ZM11.2026 45.3V43.7C11.2026 42.8163 11.9189 42.1 12.8026 42.1H21.6026V46.9H12.8026C11.9189 46.9 11.2026 46.1836 11.2026 45.3ZM18.1546 4.43599C20.8026 5.58799 27.2026 5.58799 29.8506 4.43599L30.4026 7.69999C30.2906 8.14799 28.0906 9.29999 24.0026 9.29999C19.9146 9.29999 17.7226 8.17999 17.6026 7.69999L18.1546 4.43599ZM26.4026 35.7H33.6026C34.4862 35.7 35.2026 36.4163 35.2026 37.3V38.9C35.2026 39.7836 34.4862 40.5 33.6026 40.5H26.4026V35.7ZM34.4026 30.9V32.5C34.4026 33.3836 33.6862 34.1 32.8026 34.1H26.4026V29.3H32.8026C33.6862 29.3 34.4026 30.0163 34.4026 30.9ZM26.4026 27.7V22.9H32.8026C33.3161 22.9005 33.7982 23.1475 34.0986 23.564C34.4826 24.068 34.4026 24.42 34.4026 26.1C34.4026 26.9836 33.6862 27.7 32.8026 27.7H26.4026ZM36.0026 18.1V19.7C36.0026 20.5836 35.2862 21.3 34.4026 21.3H26.4026V16.5H34.4026C35.2862 16.5 36.0026 17.2163 36.0026 18.1ZM12.8026 38.9V37.3C12.8026 36.4163 13.5189 35.7 14.4026 35.7H21.6026V40.5H14.4026C13.5189 40.5 12.8026 39.7836 12.8026 38.9ZM21.6026 21.3H13.6026C12.7189 21.3 12.0026 20.5836 12.0026 19.7V18.1C12.0026 17.2163 12.7189 16.5 13.6026 16.5H21.6026V21.3ZM13.6026 26.1V24.5C13.6026 23.6163 14.3189 22.9 15.2026 22.9H21.6026V27.7H15.2026C14.3189 27.7 13.6026 26.9836 13.6026 26.1ZM21.6026 29.3V34.1H15.2026C14.3189 34.1 13.6026 33.3836 13.6026 32.5V30.9C13.6026 30.0163 14.3189 29.3 15.2026 29.3H21.6026ZM23.2026 46.9V10.9H24.8026V46.9H23.2026ZM36.8026 45.3C36.8026 46.1836 36.0862 46.9 35.2026 46.9H26.4026V42.1H35.2026C36.0862 42.1 36.8026 42.8163 36.8026 43.7V45.3ZM45.9626 35.948L46.3466 37.5C46.4507 37.9116 46.387 38.3478 46.1695 38.7124C45.9519 39.077 45.5983 39.3402 45.1866 39.444L37.4026 41.388C37.0735 41.0753 36.6804 40.8379 36.2506 40.692C36.6126 40.1647 36.8051 39.5396 36.8026 38.9C36.8617 38.1367 36.8348 37.3693 36.7226 36.612L44.0026 34.788C44.4164 34.679 44.8567 34.7403 45.2251 34.9583C45.5934 35.1763 45.859 35.5327 45.9626 35.948ZM44.0026 31.484C44.22 32.3387 43.7047 33.2083 42.8506 33.428C37.2506 34.86 38.5626 34.508 36.6026 35.028C36.3094 35.0946 36.003 35.0723 35.7226 34.964C35.564 34.8254 35.3925 34.7021 35.2106 34.596C35.7224 34.0179 36.0042 33.2721 36.0026 32.5C36.0623 31.7394 36.0354 30.9745 35.9226 30.22L41.6826 28.772C42.0942 28.6678 42.5304 28.7315 42.895 28.9491C43.2596 29.1667 43.5228 29.5203 43.6266 29.932L44.0026 31.484ZM42.4026 25.284C42.6144 26.1386 42.0961 27.0037 41.2426 27.22L35.2026 28.764C35.1228 28.6682 35.0344 28.5798 34.9386 28.5C35.6202 27.889 36.0075 27.0153 36.0026 26.1C36.084 25.2742 36.0409 24.4409 35.8746 23.628L40.1306 22.564C40.9805 22.3455 41.8477 22.8523 42.0746 23.7L42.4026 25.284ZM40.8506 19.068C40.9547 19.4796 40.891 19.9158 40.6735 20.2804C40.4559 20.645 40.1023 20.9082 39.6906 21.012L36.7946 21.732C37.7626 20.636 37.6026 19.7 37.6026 18.1C37.6008 17.6084 37.4858 17.1239 37.2666 16.684L38.5786 16.356C39.4332 16.1441 40.2983 16.6625 40.5146 17.516L40.8506 19.068ZM38.9626 11.316L39.3546 12.86C39.4587 13.2716 39.395 13.7078 39.1775 14.0724C38.9599 14.437 38.6063 14.7002 38.1946 14.804L37.9786 14.86C38.2535 14.3858 38.3996 13.8481 38.4026 13.3C38.5032 12.3021 38.4246 11.2942 38.1706 10.324C38.568 10.5216 38.8579 10.8847 38.9626 11.316ZM36.1226 9.87599C36.9706 10.852 36.8026 11.804 36.8026 13.3C36.8026 14.1836 36.0862 14.9 35.2026 14.9H26.4026V10.764C28.8026 10.492 30.9866 9.79599 31.7226 8.61199L34.3306 8.91599C35.0264 9.00243 35.6651 9.34463 36.1226 9.87599ZM29.3786 2.89999C27.2426 3.96399 20.8026 3.96399 18.6266 2.89999C20.8026 1.83599 27.2026 1.83599 29.3786 2.89999ZM13.6746 8.91599L16.2826 8.61199C17.0186 9.79599 19.1786 10.492 21.6026 10.764V14.9H12.8026C11.9189 14.9 11.2026 14.1836 11.2026 13.3V11.7C11.2045 10.2806 12.2654 9.08583 13.6746 8.91599ZM8.65058 12.86L9.03458 11.308C9.14641 10.8718 9.43683 10.503 9.83458 10.292C9.53058 11.212 9.60258 11.7 9.60258 13.3C9.59846 13.8616 9.74487 14.4141 10.0266 14.9L9.81058 14.844C9.38993 14.7408 9.02907 14.4715 8.81046 14.0976C8.59185 13.7237 8.53416 13.2772 8.65058 12.86ZM7.05058 19.068L7.44258 17.516C7.54637 17.1043 7.80955 16.7507 8.17418 16.5331C8.5388 16.3155 8.97495 16.2518 9.38658 16.356L10.6906 16.684C10.4908 17.1288 10.3924 17.6125 10.4026 18.1C10.4026 19.636 10.2346 20.636 11.1546 21.74L8.25058 21.012C7.83885 20.9082 7.48527 20.645 7.2677 20.2804C7.05012 19.9158 6.98641 19.4796 7.09058 19.068H7.05058ZM5.53858 25.3L5.92258 23.7C6.02461 23.2868 6.28707 22.9313 6.6519 22.7121C7.01672 22.4929 7.45385 22.4281 7.86658 22.532L12.1306 23.604C11.961 24.4246 11.9178 25.2663 12.0026 26.1C12.0078 27.0216 12.4101 27.8963 13.1066 28.5C13.0108 28.5798 12.9224 28.6682 12.8426 28.764L6.69858 27.22C5.85289 27.0036 5.33674 26.1493 5.53858 25.3ZM4.00258 31.492L4.39458 29.892C4.49836 29.4803 4.76155 29.1267 5.12617 28.9091C5.4908 28.6915 5.92695 28.6278 6.33858 28.732L12.1066 30.18C12.0447 30.4153 12.0098 30.6568 12.0026 30.9C12.0026 32.428 11.8346 33.46 12.8026 34.564C12.6206 34.6701 12.4492 34.7934 12.2906 34.932C12.0148 35.0362 11.7147 35.0585 11.4266 34.996L5.17058 33.396C4.32934 33.1831 3.81117 32.3384 4.00258 31.492ZM1.65058 37.5L2.04258 35.948C2.14615 35.5327 2.41178 35.1763 2.7801 34.9583C3.14841 34.7403 3.58871 34.679 4.00258 34.788L11.2986 36.612C11.2424 36.8373 11.2103 37.0679 11.2026 37.3C11.2026 38.796 11.0666 39.7 11.7546 40.692C11.3227 40.8387 10.9272 41.076 10.5946 41.388L2.81058 39.444C2.39885 39.3402 2.04527 39.077 1.8277 38.7124C1.61012 38.3478 1.54641 37.9116 1.65058 37.5Z" stroke="#1E1E1E" stroke-width="0.2" mask="url(#path-1-outside-1)"/>
</svg>
