<svg width="34" height="49" viewBox="0 0 34 49" fill="none" xmlns="http://www.w3.org/2000/svg">
<path fill-rule="evenodd" clip-rule="evenodd" d="M27.9047 0.5C30.9481 0.5 33.424 2.97594 33.424 6.01925L33.4241 42.9808C33.4241 46.0241 30.9482 48.5 27.9048 48.5H6.09493C3.05162 48.5 0.575684 46.0241 0.575684 42.9808V6.01925C0.575684 2.97594 3.05162 0.5 6.09493 0.5H27.9047ZM27.9048 2.375H6.09493C4.24628 2.375 2.71478 3.75856 2.48153 5.54459L2.45068 7.41959V39.5H23.7617C24.2795 39.5 23.6993 39.9198 23.6993 40.4375C23.6993 40.9553 24.2795 41.3751 23.7617 41.3751H2.45068V42.9808C2.45068 44.9902 4.0854 46.625 6.09493 46.625H27.9047C29.9143 46.625 31.549 44.9902 31.5491 42.9808V41.3751H24.238C23.7202 41.3751 23.3005 40.9553 23.3005 40.4375C23.3005 39.9198 23.7202 39.5 24.238 39.5H31.5488V7.41959L31.5182 5.54459C31.2849 3.75856 29.7535 2.375 27.9048 2.375Z" fill="#1E1E1E"/>
</svg>
