<svg width="48" height="48" viewBox="0 0 48 48" fill="none" xmlns="http://www.w3.org/2000/svg">
<path fill-rule="evenodd" clip-rule="evenodd" d="M45.1868 47.5C46.7376 47.5 47.9993 46.2383 47.9993 44.6876V2.81243C47.9993 1.26166 46.7376 0 45.1868 0H28.6873C27.1365 0 25.8748 1.26166 25.8748 2.81243V44.6876C25.8748 46.2383 27.1365 47.5 28.6873 47.5H45.1868ZM22.1249 44.6876C22.1249 46.2383 20.8633 47.5 19.3125 47.5H2.81292C1.26214 47.5 0.000488281 46.2383 0.000488281 44.6876V2.81243C0.000488281 1.26166 1.26214 0 2.81292 0H19.3125C20.8633 0 22.1249 1.26166 22.1249 2.81243V44.6876ZM20.25 17.0621H1.87544V44.6876C1.87544 45.2045 2.29599 45.625 2.81292 45.625H19.3125C19.8294 45.625 20.25 45.2045 20.25 44.6876V17.0621ZM20.25 10.1247H1.87544V6.93732H20.25V10.1247ZM1.87544 15.1871V11.9997H20.25V15.1871H1.87544ZM2.81292 1.87495H19.3125C19.8294 1.87495 20.25 2.2955 20.25 2.81243V5.06237H1.87544V2.81243C1.87544 2.2955 2.29609 1.87495 2.81292 1.87495ZM46.1243 10.1247H27.7498V6.93732H46.1243V10.1247ZM27.7498 11.9997H46.1243V15.1871H27.7498V11.9997ZM28.6873 1.87495H45.1868C45.7038 1.87495 46.1243 2.2955 46.1243 2.81243V5.06237H27.7498V2.81243C27.7498 2.2955 28.1704 1.87495 28.6873 1.87495ZM27.7498 44.6876V17.0621H46.1243V44.6876C46.1243 45.2045 45.7038 45.625 45.1868 45.625H28.6873C28.1704 45.625 27.7498 45.2045 27.7498 44.6876Z" fill="#1E1E1E"/>
</svg>
