<svg width="48" height="39" viewBox="0 0 48 39" fill="none" xmlns="http://www.w3.org/2000/svg">
<path d="M47.0625 30.4156H45.1596V4.11006C45.1596 2.14984 43.5648 0.554962 41.6046 0.554962H6.39544C4.43522 0.554962 2.84044 2.14984 2.84044 4.11006V30.4156H0.9375C0.419719 30.4156 0 30.8354 0 31.3531V33.0893C0 36.0424 2.40263 38.4451 5.35575 38.4451H29.7619C30.2797 38.4451 30.6994 38.0252 30.6994 37.5076C30.6994 36.9898 30.2797 36.5701 29.7619 36.5701H5.35575C3.43641 36.57 1.875 35.0086 1.875 33.0892V32.2905H46.125V33.0892C46.125 35.0086 44.5636 36.57 42.6442 36.57H28.2381C27.7204 36.57 27.3006 36.9897 27.3006 37.5075C27.3006 38.0252 27.7204 38.445 28.2381 38.445H42.6442C45.5974 38.445 48 36.0423 48 33.0892V31.353C48 30.8353 47.5802 30.4156 47.0625 30.4156ZM4.71544 30.4156V4.11006C4.71544 3.18362 5.46909 2.42996 6.39544 2.42996H41.6046C42.5309 2.42996 43.2846 3.18362 43.2846 4.11006V30.4156H4.71544Z" fill="#1E1E1E"/>
</svg>
