<svg width="48" height="44" viewBox="0 0 48 44" fill="none" xmlns="http://www.w3.org/2000/svg">
<path d="M47.0625 7.1355H39.7401V5.81421C39.7401 4.27063 38.484 3.01453 36.9404 3.01453H34.7065V2.96289C34.7065 1.57019 33.5739 0.4375 32.1812 0.4375H11.7004C7.00085 0.4375 3.17725 4.26111 3.17725 8.96106V11.7135C3.17725 13.6801 4.02869 15.5474 5.51331 16.8368C5.6748 16.9771 5.74182 17.2008 5.68396 17.407L1.91968 30.8301C0.791016 31.3215 0 32.4473 0 33.7546C0 35.5125 1.43005 36.9425 3.18787 36.9425H6.52185C6.97888 40.1589 9.75037 42.64 13.0909 42.64H13.326C16.9845 42.64 19.9611 39.6635 19.9611 36.005V27.1083C19.9611 26.1305 20.7565 25.3354 21.7339 25.3354C22.7113 25.3354 23.5067 26.1305 23.5067 27.1083V42.5737C23.5067 43.0916 23.9264 43.5112 24.4442 43.5112C24.962 43.5112 25.3817 43.0916 25.3817 42.5737V27.1083C25.3817 25.0967 23.7451 23.4604 21.7339 23.4604C19.7223 23.4604 18.0861 25.0967 18.0861 27.1083V36.005C18.0861 38.6296 15.9507 40.765 13.326 40.765H13.0909C10.7871 40.765 8.86011 39.12 8.42358 36.9425H11.5986C13.3564 36.9425 14.7865 35.5125 14.7865 33.7546C14.7865 32.4905 14.0471 31.3959 12.9778 30.881L15.4369 21.7319H18.5208C20.3987 21.7319 22.054 20.4004 22.4564 18.566L23.1698 15.3177H32.1812C33.4585 15.3177 34.5172 14.3645 34.6838 13.1318H36.9401C38.484 13.1318 39.7397 11.8761 39.7397 10.3322V9.0105H47.0625C47.5803 9.0105 48 8.59082 48 8.073C48 7.55554 47.5803 7.1355 47.0625 7.1355ZM11.599 35.0675H3.18787C2.46387 35.0675 1.875 34.4786 1.875 33.7546C1.875 33.0306 2.46387 32.4418 3.18787 32.4418H11.599C12.3226 32.4418 12.9115 33.0306 12.9115 33.7546C12.9115 34.4786 12.3226 35.0675 11.599 35.0675ZM20.6254 18.1643C20.41 19.145 19.5249 19.8569 18.5208 19.8569H15.9408L16.6461 17.2334C16.6721 17.1367 16.7036 17.0422 16.7399 16.9507C16.7465 16.9338 16.7534 16.9174 16.7604 16.9009C16.7637 16.8925 16.7673 16.8844 16.7706 16.8763C16.7816 16.8518 16.7922 16.8273 16.804 16.8031C16.8076 16.795 16.8113 16.787 16.8153 16.7789C16.8347 16.739 16.8549 16.6998 16.8765 16.661C16.8805 16.6533 16.8849 16.6456 16.8893 16.6379C16.9021 16.6149 16.9156 16.5918 16.9292 16.5695C16.9336 16.5618 16.9384 16.5544 16.9427 16.5468C17.4056 15.7986 18.2322 15.3177 19.1448 15.3177H21.2498L20.6254 18.1643ZM32.8315 12.7924C32.8315 13.1509 32.54 13.4427 32.1812 13.4427H22.4191C22.418 13.4427 22.4169 13.4427 22.4158 13.4427H19.1451C17.4924 13.4427 16.0031 14.3572 15.2325 15.7594C15.2175 15.7861 15.2032 15.8132 15.1893 15.8403C15.1538 15.9077 15.1201 15.9766 15.0879 16.0461C14.9857 16.2695 14.9008 16.5035 14.8352 16.7467L13.8127 20.5509C13.8127 20.5516 13.8124 20.5524 13.8124 20.5531L11.1207 30.5668H3.9408L4.43115 28.8181H7.31104C8.46826 28.8181 9.49036 28.0385 9.79578 26.9222C9.93274 26.4227 9.63867 25.9071 9.13916 25.7705C8.64038 25.6335 8.12439 25.9276 7.98743 26.4271C7.9043 26.7307 7.62634 26.9431 7.31104 26.9431H4.95703L7.02539 19.568H8.94617C9.16663 19.568 9.36987 19.6687 9.50354 19.8438C9.63721 20.0192 9.68079 20.2418 9.62256 20.4546C9.4856 20.9537 9.77966 21.4694 10.2792 21.6063C10.7787 21.7429 11.2943 21.4489 11.4309 20.9493C11.6448 20.1682 11.4855 19.3505 10.994 18.7063C10.5026 18.0625 9.75623 17.693 8.94617 17.693H7.53992C7.69189 16.8566 7.3916 15.9846 6.74268 15.4207C5.66821 14.4875 5.05225 13.1366 5.05225 11.7135V8.96106C5.05225 5.29492 8.03467 2.3125 11.7004 2.3125H32.1812C32.5397 2.3125 32.8315 2.604 32.8315 2.96289V12.7924ZM37.8651 10.3322C37.8651 10.8419 37.4502 11.2568 36.9404 11.2568H34.7065V4.88953H36.9404C37.4502 4.88953 37.8651 5.30408 37.8651 5.81421V10.3322Z" fill="#1E1E1E"/>
</svg>
