<svg width="42" height="49" viewBox="0 0 42 49" fill="none" xmlns="http://www.w3.org/2000/svg">
<path d="M41.4977 17.3858C41.1914 16.6838 40.7736 16.4067 40.0817 15.9478C39.1712 15.3438 38.0554 14.9047 36.8741 14.4399C36.152 14.1557 35.4252 13.8697 34.7228 13.5432L34.8585 13.384C35.1943 12.9899 35.147 12.3982 34.753 12.0624C34.3588 11.7264 33.7671 11.7737 33.4313 12.1679L33.0421 12.6248C30.9258 11.2384 29.3414 9.06331 29.3414 4.71397C29.3414 4.688 29.3402 4.66231 29.3382 4.63681C29.2704 2.159 25.933 0.5 20.9905 0.5C15.9968 0.5 12.6417 2.19341 12.6417 4.71397C12.6417 8.88997 10.9924 11.0868 8.87088 12.5165L8.57388 12.1679C8.23797 11.7738 7.64631 11.7264 7.25219 12.0624C6.85806 12.3982 6.81081 12.9899 7.14663 13.384L7.21319 13.4621C6.48944 13.8177 5.74778 14.1267 5.02553 14.4275C3.87484 14.9068 2.788 15.3596 1.90141 15.9477C1.20944 16.4067 0.791688 16.6838 0.485407 17.3859C0.434313 17.5032 0.327813 17.7472 0.432438 20.0597C0.489532 21.3213 0.63147 23.3155 0.983407 25.6508C1.59756 29.7255 2.97503 35.5684 6.04994 40.2642C9.62866 45.729 14.6557 48.5 20.9915 48.5C30.387 48.5 36.9447 42.709 39.9557 31.7531C40.0929 31.2537 39.7995 30.7378 39.3002 30.6006C38.801 30.4632 38.2849 30.7569 38.1478 31.2561C35.345 41.4542 29.5728 46.625 20.9915 46.625C16.4012 46.625 12.5604 44.9881 9.57588 41.7598C5.73625 37.6064 3.95341 31.5117 3.13403 27.1302C2.28991 22.6167 2.24331 18.8733 2.26797 18.0154C2.34016 17.915 2.48088 17.8133 2.93781 17.5101C3.67469 17.0213 4.68109 16.602 5.74647 16.1583C6.60522 15.8006 7.53766 15.4122 8.46334 14.9292L18.4361 26.6331C17.4909 27.3727 16.8715 28.5103 16.8323 29.7913C15.2454 30.2986 14.0665 31.7711 13.9711 33.5546C13.8996 34.8945 14.4157 35.8454 14.8103 36.4441C15.7188 37.8225 19.9256 41.4052 20.4022 41.8092C20.5771 41.9574 20.7927 42.0314 21.0083 42.0314C21.224 42.0314 21.4398 41.9573 21.6147 41.8089C22.0896 41.4061 26.2813 37.8333 27.1955 36.4432C27.5897 35.8435 28.1056 34.8913 28.0339 33.5545C27.9385 31.7712 26.7596 30.2988 25.1727 29.7915C25.1335 28.5104 24.5141 27.3728 23.5689 26.6332L33.4701 15.0132C34.3957 15.4795 35.3286 15.8466 36.1874 16.1846C37.2738 16.6122 38.2999 17.0159 39.0451 17.5103C39.5085 17.8176 39.6467 17.9179 39.7179 18.0197C39.7412 18.5515 39.7756 20.453 39.5695 22.9787C39.5274 23.4948 39.9116 23.9473 40.4276 23.9893C40.4536 23.9914 40.4793 23.9925 40.5049 23.9925C40.9881 23.9925 41.3983 23.6213 41.4383 23.1312C41.5722 21.4902 41.606 20.1343 41.6108 19.2859C41.62 17.6666 41.5607 17.5303 41.4977 17.3858ZM15.9507 3.24744C17.1618 2.68484 18.9516 2.375 20.9905 2.375C23.0294 2.375 24.8192 2.68484 26.0303 3.24744C26.9417 3.67081 27.4643 4.20538 27.4643 4.71406C27.4643 5.22284 26.9417 5.75741 26.0303 6.18078C24.8192 6.74338 23.0294 7.05322 20.9905 7.05322C18.9516 7.05322 17.1618 6.74338 15.9507 6.18078C15.0393 5.75741 14.5167 5.22284 14.5167 4.71406C14.5167 4.20528 15.0393 3.67072 15.9507 3.24744ZM23.2864 29.6711C22.335 29.867 21.5481 30.4468 21.01 30.9612C20.4759 30.4445 19.6886 29.8625 18.7191 29.6688C18.845 28.5202 19.8211 27.6235 21.0027 27.6235C22.185 27.6234 23.1616 28.5213 23.2864 29.6711ZM26.1617 33.6548C26.1951 34.2773 26.0407 34.7868 25.629 35.4132C25.1156 36.1938 22.7345 38.3658 21.008 39.8597C19.2752 38.3623 16.886 36.1866 16.3759 35.4126C15.9698 34.7963 15.8105 34.2704 15.8434 33.6547C15.9077 32.4539 16.8979 31.4771 18.0507 31.4771C18.8973 31.4771 19.6869 32.2286 20.0654 32.6936V34.2168C20.0654 34.7345 20.4851 35.1543 21.0029 35.1543C21.5207 35.1543 21.9404 34.7345 21.9404 34.2168V32.7059C22.3419 32.2318 23.1509 31.4771 23.9542 31.4771C25.1072 31.4772 26.0975 32.454 26.1617 33.6548ZM21.7953 25.8239C21.5387 25.7743 21.2736 25.7484 21.0026 25.7484C20.7317 25.7484 20.4666 25.7743 20.2098 25.8239L10.0939 13.9519C12.026 12.6084 13.6998 10.6388 14.2901 7.388C15.7491 8.35831 18.0942 8.92803 20.9905 8.92803C23.8794 8.92803 26.22 8.36122 27.6797 7.39541C28.2521 10.7473 29.9087 12.7292 31.8276 14.0501L21.7953 25.8239Z" fill="#1E1E1E"/>
</svg>
