<svg width="14" height="11" viewBox="0 0 14 11" fill="none" xmlns="http://www.w3.org/2000/svg">
<path d="M0.327562 0.807579C-0.234355 1.91216 0.403645 2.44016 1.85931 3.34216C3.09681 4.10665 4.8064 4.38624 5.90456 4.49807L4.98423 5.38357C3.67981 6.62565 2.44231 7.82831 1.57698 8.66156C0.317478 9.8688 2.34514 11.8057 3.60373 10.6241L7.01098 7.33789C8.3154 8.59281 9.56573 9.79547 10.4182 10.6287C11.6777 11.8149 13.7045 9.89447 12.4587 8.66614L9.05148 5.38815L8.11831 4.50265C9.23023 4.39082 10.9141 4.09474 12.137 3.34674L12.1361 3.34582C13.5917 2.43924 14.2297 1.91216 13.6761 0.807579C13.3415 0.180581 12.4395 -0.34375 11.2386 0.562831C11.2386 0.562831 9.61706 1.80491 7.00181 1.80491C4.38564 1.80491 2.76498 0.562831 2.76498 0.562831C1.56415 -0.348333 0.658478 0.180581 0.327562 0.807579Z" fill="white"/>
</svg>
