<svg width="28" height="49" viewBox="0 0 28 49" fill="none" xmlns="http://www.w3.org/2000/svg">
<path d="M27.4241 6.01925C27.4241 2.97594 24.9482 0.5 21.9049 0.5H6.09506C3.05174 0.5 0.575806 2.97594 0.575806 6.01925V42.9808C0.575806 46.0241 3.05174 48.5 6.09506 48.5H21.905C24.9483 48.5 27.4242 46.0241 27.4242 42.9808L27.4241 6.01925ZM6.09506 2.375H21.905C23.7536 2.375 25.285 3.75856 25.5184 5.54459H18.2381C17.7204 5.54459 17.3006 5.96431 17.3006 6.48209C17.3006 6.99988 17.7204 7.41959 18.2381 7.41959H25.5489V39.9029H2.45081V7.41959H19.7619C20.2796 7.41959 20.6994 6.99988 20.6994 6.48209C20.6994 5.96431 20.2796 5.54459 19.7619 5.54459H2.48165C2.7149 3.75856 4.2464 2.375 6.09506 2.375ZM21.9049 46.625H6.09506C4.08552 46.625 2.45081 44.9902 2.45081 42.9808V41.778H25.5492V42.9808C25.5491 44.9902 23.9144 46.625 21.9049 46.625Z" fill="#1E1E1E"/>
</svg>
