<svg width="46" height="42" viewBox="0 0 46 42" fill="none" xmlns="http://www.w3.org/2000/svg">
<path d="M40.9996 16.3138C38.6677 13.9822 35.718 12.53 32.4697 12.1141C31.9494 12.0473 31.4731 12.4218 31.4182 12.9469C31.3645 13.4595 31.7536 13.9114 32.2646 13.9781C35.0846 14.3464 37.6461 15.6121 39.6739 17.6395C44.6947 22.661 44.6947 30.8317 39.6739 35.8532C37.2416 38.2855 34.0078 39.625 30.5679 39.625C28.0882 39.625 25.686 38.9217 23.6137 37.59C23.6129 37.5894 23.6121 37.5889 23.6113 37.5884L23.5245 37.5321C22.7853 37.0486 22.0909 36.4836 21.4604 35.8533C21.1375 35.5304 20.8298 35.1884 20.5449 34.8359C20.5445 34.8353 20.4416 34.7065 20.4283 34.6894C18.6604 32.4377 17.6888 29.6249 17.6888 26.7472C17.6888 24.1536 18.4921 21.5757 19.9578 19.4443C20.5674 19.8049 21.1311 20.2426 21.6386 20.75C21.7353 20.8467 21.8293 20.9454 21.9205 21.0458C20.7796 22.7804 20.1795 24.8593 20.2224 26.9595C20.2675 29.1706 21.0248 31.3272 22.3598 33.0604C22.361 33.062 22.4863 33.2214 22.5067 33.2465C22.7327 33.5284 22.981 33.8051 23.2449 34.0689C24.0322 34.8561 24.9309 35.5061 25.9156 36.0005C25.9162 36.0008 26.0548 36.0693 26.0645 36.0739C26.0759 36.0794 28.4102 37.1017 30.5679 37.1017C33.3675 37.1017 35.9976 35.9981 37.9613 33.9965C39.8305 32.0913 40.896 29.5199 40.9221 26.8509C40.9494 24.0461 39.87 21.4049 37.8896 19.4244C35.9334 17.4683 33.333 16.391 30.5673 16.391C29.2904 16.391 27.9967 16.6346 26.8038 17.0975C26.5707 16.8284 26.3268 16.5661 26.075 16.3142C25.3537 15.5929 24.5584 14.9462 23.7115 14.3921C22.2469 13.4337 20.6361 12.7513 18.9478 12.3651L23.9042 7.01126C24.2038 6.68754 24.2374 6.19873 23.9846 5.83723L23.9223 5.74807C23.922 5.7477 23.9217 5.74723 23.9214 5.74685L20.1992 0.422886C20.1992 0.422886 20.1992 0.422792 20.1991 0.422699C20.0496 0.175011 19.7824 0.021917 19.4932 0.0223857C19.4559 0.0224795 19.4319 0.0224794 19.4308 0.0224794H11.8601C11.554 0.0224794 11.2672 0.171917 11.0918 0.422792L7.37157 5.74367C7.37044 5.74517 7.36941 5.74667 7.36829 5.74826L7.30604 5.83742C7.05348 6.19892 7.08704 6.68754 7.38666 7.01117L12.3403 12.362C9.66038 12.9717 7.20029 14.3234 5.20932 16.3142C-0.54243 22.0668 -0.54243 31.4268 5.20932 37.1794C5.20932 37.1794 5.20941 37.1794 5.20941 37.1794C7.99613 39.9656 11.7011 41.5 15.6421 41.5C18.2812 41.5 20.8485 40.8025 23.1047 39.4775C25.3614 40.8028 27.9266 41.5 30.5679 41.5C34.5086 41.5 38.2133 39.9655 40.9997 37.1791C46.7514 31.4266 46.7514 22.0665 40.9996 16.3138ZM18.2209 34.826C17.3892 35.0898 16.5142 35.2269 15.6418 35.2269C13.3764 35.2269 11.247 34.3448 9.64566 32.743C8.04404 31.1414 7.16185 29.0118 7.16185 26.7467C7.16185 24.4814 8.04395 22.3519 9.64566 20.7501C11.2474 19.1485 13.3767 18.2664 15.6416 18.2665C16.5166 18.2665 17.3904 18.4035 18.2216 18.6676C16.6644 21.0523 15.8139 23.8917 15.8139 26.7473C15.8138 29.6217 16.6605 32.4403 18.2209 34.826ZM23.102 22.717C24.438 25.2107 24.4426 28.2774 23.1029 30.7767C21.7467 28.2747 21.7389 25.2355 23.102 22.717ZM36.5635 20.7501C38.1653 22.3519 39.0474 24.4816 39.0474 26.7467C39.0474 29.0119 38.1653 31.1414 36.5635 32.743C34.9619 34.3446 32.8325 35.2266 30.5676 35.2266C29.6925 35.2266 28.8187 35.0897 27.9876 34.8257C29.5473 32.4393 30.3954 29.6139 30.3954 26.7458C30.3954 23.8713 29.5485 21.0525 27.9883 18.667C28.8206 18.4034 29.6985 18.2659 30.5669 18.2659C32.832 18.2659 34.9616 19.1481 36.5635 20.7501ZM21.3544 5.34757H17.462L19.4244 2.58701L21.3544 5.34757ZM17.614 1.89748L15.6489 4.66207L13.7014 1.89748H17.614ZM11.8799 2.5676L13.8382 5.34757H9.93629L11.8799 2.5676ZM21.1531 7.22257L16.7367 11.9931H14.554L10.1377 7.22257H21.1531ZM15.6421 39.6249C12.202 39.6249 8.96776 38.2855 6.53523 35.8534C1.51445 30.8319 1.51445 22.6613 6.53523 17.6399C8.96729 15.2079 12.2013 13.8684 15.6414 13.8681H15.6503C18.1622 13.8696 20.5945 14.5932 22.6847 15.9609C23.424 16.4447 24.1185 17.0095 24.7489 17.6399C25.0721 17.9631 25.3804 18.3058 25.6657 18.6589C27.5066 20.9343 28.5205 23.8063 28.5205 26.7458C28.5205 29.3508 27.7194 31.915 26.2514 34.0488C25.6418 33.6881 25.0782 33.2505 24.5707 32.743C24.4738 32.6461 24.3796 32.5473 24.2883 32.4467C25.4111 30.7394 26.0106 28.7029 25.9882 26.6335C25.9629 24.3043 25.1502 22.0346 23.7017 20.2446C23.4752 19.9631 23.2271 19.6871 22.9644 19.4243C22.1767 18.6366 21.2773 17.9864 20.2919 17.4919C18.8603 16.7719 17.2522 16.3915 15.6415 16.3915H15.6412C12.8757 16.3915 10.2756 17.4686 8.31985 19.4243C6.36395 21.38 5.28685 23.9806 5.28685 26.7467C5.28685 29.5126 6.36395 32.113 8.31976 34.0688C10.2752 36.0247 12.8755 37.102 15.6418 37.102C16.924 37.102 18.2113 36.8593 19.4056 36.3958C19.6386 36.6649 20.9396 37.9405 21.3713 38.2851C19.601 39.1649 17.6455 39.6249 15.6421 39.6249Z" fill="#1E1E1E"/>
</svg>
