<svg width="20" height="49" viewBox="0 0 20 49" fill="none" xmlns="http://www.w3.org/2000/svg">
<path d="M19.443 26.7948C19.443 22.6149 16.7756 19.0462 13.0536 17.7015C13.9757 16.8307 14.5521 15.5972 14.5521 14.2318C14.5521 11.9204 12.9008 9.9875 10.716 9.55072V8.32766C12.454 7.90541 13.7483 6.33584 13.7483 4.46975C13.7482 2.28078 11.9674 0.5 9.77851 0.5C7.58964 0.5 5.80877 2.28078 5.80877 4.46975C5.80877 4.98753 6.22858 5.40725 6.74627 5.40725C7.26395 5.40725 7.68377 4.98753 7.68377 4.46975C7.68377 3.31475 8.62342 2.375 9.77851 2.375C10.9336 2.375 11.8733 3.31466 11.8733 4.46975C11.8733 5.62484 10.9335 6.5645 9.77851 6.5645C9.26083 6.5645 8.84101 6.98422 8.84101 7.502V9.55062C6.65626 9.98741 5.00495 11.9203 5.00495 14.2317C5.00495 15.5971 5.58123 16.8306 6.50345 17.7014C2.78148 19.0461 0.114014 22.6148 0.114014 26.7947C0.114014 31.5368 3.54714 35.4921 8.05839 36.3058C7.69708 36.7912 7.2723 37.3821 6.84489 38.0219C5.28911 40.3509 4.53292 42.0624 4.53292 43.2544C4.53292 46.1469 6.88614 48.5 9.77851 48.5C12.6709 48.5 15.0241 46.1468 15.0241 43.2544C15.0241 42.0625 14.2679 40.3509 12.7121 38.0219C12.2847 37.3822 11.86 36.7912 11.4986 36.3058C16.0099 35.4922 19.443 31.5369 19.443 26.7948ZM6.87995 14.2318C6.87995 12.6335 8.18026 11.3333 9.77851 11.3333C11.3768 11.3333 12.6771 12.6336 12.6771 14.2318C12.6771 15.83 11.3768 17.1303 9.77851 17.1303C8.18026 17.1303 6.87995 15.83 6.87995 14.2318ZM13.1491 43.2544C13.1491 45.113 11.637 46.625 9.77851 46.625C7.92001 46.625 6.40792 45.113 6.40792 43.2544C6.40792 42.2349 7.58842 40.2118 8.84101 38.417V42.3104C8.84101 42.8282 9.26083 43.2479 9.77851 43.2479C10.2962 43.2479 10.716 42.8282 10.716 42.3104V38.4161C11.9686 40.2104 13.1491 42.2335 13.1491 43.2544ZM9.77851 34.5842C5.48345 34.5842 1.98901 31.0899 1.98901 26.7947C1.98901 22.4996 5.48336 19.0052 9.77851 19.0052C14.0737 19.0052 17.568 22.4996 17.568 26.7947C17.568 31.0899 14.0736 34.5842 9.77851 34.5842Z" fill="#1E1E1E"/>
</svg>
