<svg width="48" height="46" viewBox="0 0 48 46" fill="none" xmlns="http://www.w3.org/2000/svg">
<path d="M48 21.2953C48 19.4238 46.7617 17.8359 45.0615 17.308C45.5586 16.8894 45.9532 16.3563 46.2132 15.7403C46.6468 14.7133 46.6546 13.5787 46.235 12.5458C45.4436 10.5983 43.34 9.57053 41.3568 10.0671C42.5857 8.43316 42.4569 6.09541 40.9705 4.60891C39.5927 3.23116 37.4835 3.01994 35.8813 3.97497C33.7192 2.18688 31.1566 0.898191 28.4339 0.234534C27.9308 0.112378 27.4237 0.420253 27.3011 0.923409C27.1785 1.42638 27.4868 1.93357 27.9899 2.05628C30.3684 2.63603 32.6113 3.7466 34.5201 5.28419C33.4674 6.90156 33.65 9.09391 35.0677 10.5118C35.8815 11.3255 36.9503 11.7323 38.0192 11.7323C38.3587 11.7323 38.6982 11.6913 39.0296 11.6091C38.8277 11.8789 38.6572 12.1753 38.5228 12.4938C38.0892 13.5208 38.0814 14.6553 38.5012 15.6882C38.9209 16.721 39.7176 17.5288 40.7447 17.9624C40.874 18.0169 41.0048 18.0648 41.137 18.1058C40.2295 18.872 39.6523 20.0177 39.6523 21.2956C39.6523 22.8119 40.465 24.1418 41.6778 24.8729C41.3442 24.9209 41.0142 25.0098 40.694 25.14C39.6611 25.5597 38.8535 26.3564 38.4198 27.3835C37.875 28.6738 38.0309 30.0874 38.7142 31.1981C38.4867 31.1602 38.2545 31.1408 38.0192 31.1408C36.9042 31.1408 35.8561 31.575 35.0677 32.3634C33.9945 33.4367 33.6292 34.9538 33.9714 36.3293C32.8373 35.4789 31.2976 35.2255 29.8914 35.7967C28.8585 36.2163 28.0508 37.0131 27.6173 38.0402C27.5258 38.257 27.4533 38.4785 27.3997 38.7029C26.6423 37.6413 25.4006 36.9478 24 36.9478C22.4837 36.9478 21.1537 37.7606 20.4227 38.9733C20.3747 38.6397 20.2857 38.3097 20.1556 37.9894C19.7359 36.9565 18.9392 36.1488 17.9121 35.7153C16.885 35.2818 15.7506 35.2739 14.7175 35.6936C14.4996 35.7822 14.2916 35.8876 14.0951 36.0084C14.3102 34.7222 13.9225 33.3538 12.9322 32.3633C12.1438 31.575 11.0957 31.1408 9.98072 31.1408C9.63647 31.1408 9.29869 31.1823 8.97291 31.2627C9.17372 30.9938 9.34331 30.6987 9.47719 30.3816C9.91078 29.3546 9.91856 28.22 9.49884 27.1872C9.07912 26.1543 8.28244 25.3466 7.25531 24.913C7.03856 24.8215 6.81694 24.749 6.5925 24.6955C7.65413 23.938 8.34769 22.6963 8.34769 21.2957C8.34769 19.9224 7.68094 18.7019 6.65428 17.9408C6.87459 17.8906 7.09247 17.8222 7.30603 17.7355C8.33887 17.3158 9.14653 16.5191 9.58022 15.492C10.0139 14.4648 10.0216 13.3303 9.60188 12.2974C9.51328 12.0795 9.40791 11.8715 9.28706 11.675C9.51656 11.7134 9.74859 11.7326 9.98072 11.7326C11.0496 11.7326 12.1184 11.3258 12.9322 10.5121C14.3499 9.09419 14.5325 6.90185 13.4798 5.28447C15.3849 3.74988 17.6236 2.64035 19.9967 2.05994C20.4997 1.93685 20.8076 1.42938 20.6846 0.926503C20.5616 0.423628 20.0544 0.115753 19.5512 0.238566C16.8346 0.903065 14.2765 2.19072 12.1186 3.97535C10.5164 3.02022 8.40713 3.23135 7.02938 4.60928C5.63653 6.00213 5.43591 8.14253 6.42722 9.75091C5.67112 9.62238 4.89234 9.70572 4.16391 10.0016C3.13097 10.4213 2.32331 11.218 1.88972 12.2451C1.12603 14.0539 1.73925 16.1051 3.25238 17.2245C1.39284 17.6447 0 19.3104 0 21.2953C0 23.2651 1.37156 24.9204 3.20981 25.3567C2.58422 25.8004 2.0925 26.4101 1.78669 27.1344C1.35309 28.1614 1.34531 29.296 1.76494 30.3289C2.42297 31.9482 3.98822 32.9318 5.63719 32.9318C5.97141 32.9318 6.309 32.8913 6.64313 32.8077C5.41425 34.4417 5.54297 36.7795 7.02938 38.2659C7.84313 39.0797 8.91197 39.4864 9.98072 39.4864C10.742 39.4864 11.5031 39.28 12.1722 38.8673C11.8584 40.731 12.85 42.6393 14.6651 43.4056C15.1935 43.6286 15.7424 43.7342 16.2829 43.7342C17.7233 43.7342 19.1028 42.9841 19.8672 41.709C20.1536 43.7332 21.8977 45.2953 23.9999 45.2953C25.9697 45.2953 27.625 43.9237 28.0613 42.0855C28.5051 42.711 29.1148 43.2028 29.839 43.5085C30.3615 43.7291 30.9115 43.8394 31.4621 43.8394C31.9939 43.8394 32.5261 43.7363 33.0336 43.5302C34.0665 43.1105 34.8742 42.3138 35.3078 41.2866C35.6642 40.4425 35.7328 39.5258 35.513 38.6524C36.2524 39.2083 37.1358 39.4863 38.0192 39.4863C39.088 39.4863 40.1569 39.0795 40.9705 38.2657C42.3634 36.873 42.564 34.7325 41.5727 33.1241C41.8019 33.1631 42.0332 33.1827 42.2646 33.1827C42.7963 33.1827 43.3284 33.0797 43.836 32.8735C44.8689 32.4538 45.6766 31.6571 46.1102 30.63C46.5438 29.6028 46.5516 28.4683 46.1318 27.4354C45.7869 26.5864 45.1872 25.8897 44.4143 25.4277C46.4383 25.1412 48 23.3972 48 21.2953ZM8.35528 5.93481C8.80341 5.48669 9.39216 5.26253 9.98081 5.26253C10.5695 5.26253 11.1582 5.48669 11.6063 5.93481C12.5027 6.83116 12.5027 8.28953 11.6063 9.18588C10.71 10.0823 9.25153 10.0821 8.35528 9.18588C7.45894 8.28953 7.45894 6.83106 8.35528 5.93481ZM3.61716 12.974C3.85603 12.4083 4.30088 11.9694 4.86975 11.7383C5.14931 11.6247 5.44237 11.5681 5.73525 11.5681C6.03844 11.5681 6.34153 11.6288 6.62925 11.7503C7.19494 11.9891 7.63378 12.4339 7.86487 13.0028C8.09606 13.5717 8.09175 14.1965 7.85297 14.7623C7.61409 15.328 7.16925 15.7669 6.60038 15.998C6.0315 16.2293 5.40666 16.2249 4.84097 15.986C3.67313 15.493 3.12413 14.1418 3.61716 12.974ZM1.875 21.2953C1.875 20.0277 2.90625 18.9964 4.17384 18.9964C5.44144 18.9964 6.47269 20.0277 6.47269 21.2953C6.47269 22.5629 5.44144 23.5941 4.17384 23.5941C2.90625 23.5941 1.875 22.563 1.875 21.2953ZM6.49725 30.8877C5.32284 31.365 3.97931 30.7976 3.50212 29.6233C3.27103 29.0544 3.27525 28.4295 3.51403 27.8637C3.75291 27.298 4.19775 26.8592 4.76663 26.6281C5.04619 26.5144 5.33916 26.4577 5.63212 26.4577C5.93522 26.4577 6.23831 26.5186 6.52603 26.64C7.09172 26.8788 7.53056 27.3237 7.76166 27.8925C7.99275 28.4613 7.98853 29.0863 7.74975 29.6521C7.51106 30.2178 7.06622 30.6566 6.49725 30.8877ZM8.35528 36.94C7.45894 36.0437 7.45894 34.5853 8.35528 33.6888C8.8035 33.2406 9.39206 33.0166 9.98081 33.0166C10.5694 33.0166 11.1582 33.2407 11.6063 33.6888C12.5027 34.5853 12.5027 36.0437 11.6063 36.94C10.71 37.8364 9.25153 37.8363 8.35528 36.94ZM18.4065 40.4545C17.9135 41.6222 16.5623 42.1713 15.3945 41.6782C14.2267 41.1852 13.6777 39.834 14.1708 38.6662C14.4097 38.1005 14.8545 37.6616 15.4234 37.4305C15.7029 37.3169 15.9959 37.2603 16.2889 37.2603C16.5921 37.2603 16.8952 37.321 17.1829 37.4425C17.7486 37.6813 18.1874 38.1261 18.4185 38.695C18.6496 39.2639 18.6454 39.8887 18.4065 40.4545ZM24 43.4203C22.7324 43.4203 21.7012 42.389 21.7012 41.1214C21.7012 39.8538 22.7324 38.8226 24 38.8226C25.2676 38.8226 26.2988 39.8538 26.2988 41.1214C26.2988 42.389 25.2676 43.4203 24 43.4203ZM36.3937 9.18578C35.4973 8.28944 35.4973 6.83106 36.3937 5.93472C36.8418 5.4866 37.4305 5.26244 38.0192 5.26244C38.6079 5.26244 39.1966 5.4866 39.6447 5.93472C40.5411 6.83106 40.5411 8.28944 39.6447 9.18578C38.7485 10.0821 37.29 10.0822 36.3937 9.18578ZM40.2383 14.9823C40.0072 14.4134 40.0114 13.7884 40.2502 13.2227C40.4889 12.657 40.9338 12.2181 41.5027 11.987C41.7852 11.8722 42.0773 11.8179 42.3651 11.8179C43.2732 11.8179 44.1354 12.3596 44.4978 13.2514C44.7289 13.8203 44.7247 14.4453 44.4859 15.011C44.247 15.5767 43.8022 16.0156 43.2333 16.2467C42.6644 16.4778 42.0396 16.4735 41.4738 16.2348C40.9082 15.996 40.4693 15.5511 40.2383 14.9823ZM33.5804 40.5575C33.3415 41.1232 32.8967 41.5621 32.3278 41.7932C31.7589 42.0243 31.1342 42.02 30.5683 41.7812C30.0026 41.5424 29.5638 41.0975 29.3327 40.5288C29.1016 39.9599 29.1058 39.3349 29.3446 38.7692C29.5834 38.2035 30.0282 37.7646 30.5972 37.5335C31.7718 37.0564 33.1151 37.6236 33.5923 38.7979C33.8235 39.3669 33.8193 39.9918 33.5804 40.5575ZM39.6447 36.94C38.7485 37.8363 37.29 37.8364 36.3937 36.94C35.4973 36.0437 35.4973 34.5853 36.3937 33.6888C36.8419 33.2406 37.4304 33.0166 38.0192 33.0166C38.6077 33.0166 39.1966 33.2407 39.6447 33.6888C40.5411 34.5853 40.5411 36.0438 39.6447 36.94ZM44.3828 29.9008C44.144 30.4665 43.6991 30.9054 43.1302 31.1365C42.5613 31.3677 41.9364 31.3634 41.3708 31.1245C40.2029 30.6315 39.6539 29.2803 40.1469 28.1125C40.3858 27.5468 40.8307 27.1079 41.3995 26.8768C41.6791 26.7632 41.9721 26.7065 42.2649 26.7065C42.5681 26.7065 42.8712 26.7673 43.1589 26.8888C43.7246 27.1276 44.1635 27.5724 44.3946 28.1413C44.6259 28.7103 44.6217 29.3351 44.3828 29.9008ZM43.8262 23.5942C42.5586 23.5942 41.5273 22.563 41.5273 21.2954C41.5273 20.0278 42.5586 18.9965 43.8262 18.9965C45.0938 18.9965 46.125 20.0277 46.125 21.2953C46.125 22.563 45.0938 23.5942 43.8262 23.5942Z" fill="#1E1E1E"/>
</svg>
