<svg width="22" height="13" viewBox="0 0 22 13" fill="none" xmlns="http://www.w3.org/2000/svg">
<path fill-rule="evenodd" clip-rule="evenodd" d="M10.3957 12.0173H11.6515C11.6515 12.0173 12.0308 11.9757 12.2245 11.7669C12.4028 11.5752 12.3971 11.2153 12.3971 11.2153C12.3971 11.2153 12.3725 9.53022 13.1546 9.28209C13.9255 9.03766 14.9155 10.9107 15.9648 11.6308C16.7583 12.1759 17.3612 12.0564 17.3612 12.0564L20.1669 12.0173C20.1669 12.0173 21.6346 11.9269 20.9387 10.7729C20.8816 10.6785 20.5334 9.91926 18.8526 8.35913C17.0934 6.72627 17.329 6.99038 19.4481 4.1659C20.7387 2.44577 21.2547 1.3956 21.0936 0.945819C20.9398 0.517426 19.9906 0.630657 19.9906 0.630657L16.8316 0.650336C16.8316 0.650336 16.5974 0.618392 16.4237 0.72221C16.254 0.824032 16.1448 1.06133 16.1448 1.06133C16.1448 1.06133 15.6448 2.39243 14.978 3.52445C13.5713 5.91313 13.0088 6.03919 12.779 5.89088C12.2442 5.5452 12.3777 4.50217 12.3777 3.76118C12.3777 1.44637 12.7288 0.481204 11.694 0.231356C11.3506 0.148358 11.0979 0.0935971 10.2197 0.0847554C9.09255 0.0730616 8.13851 0.0881776 7.59831 0.352857C7.23894 0.528835 6.96171 0.921006 7.13056 0.943538C7.33934 0.971489 7.81222 1.07103 8.06293 1.41243C8.38665 1.8528 8.37524 2.84193 8.37524 2.84193C8.37524 2.84193 8.5612 5.56687 7.94086 5.90543C7.51503 6.13759 6.93091 5.66356 5.67682 3.4965C5.03423 2.38644 4.54908 1.15945 4.54908 1.15945C4.54908 1.15945 4.45553 0.930132 4.28868 0.80749C4.08617 0.658893 3.80324 0.611548 3.80324 0.611548L0.801349 0.631227C0.801349 0.631227 0.350709 0.643777 0.185284 0.83972C0.0381133 1.01399 0.17359 1.3745 0.17359 1.3745C0.17359 1.3745 2.52376 6.87287 5.18482 9.64374C7.62484 12.1842 10.3957 12.0173 10.3957 12.0173Z" fill="white"/>
</svg>
