<svg width="48" height="46" viewBox="0 0 48 46" fill="none" xmlns="http://www.w3.org/2000/svg">
<path d="M44.943 0.443848H3.057C1.37138 0.443848 0 1.81522 0 3.50094V36.4877C0 38.1733 1.37138 39.5447 3.057 39.5447H18.8513L16.9176 43.6811H9.84019C9.3225 43.6811 8.90269 44.1009 8.90269 44.6186C8.90269 45.1363 9.3225 45.5561 9.84019 45.5561H38.1598C38.6775 45.5561 39.0973 45.1363 39.0973 44.6186C39.0973 44.1009 38.6775 43.6811 38.1598 43.6811H31.0824L29.1487 39.5447H44.943C46.6286 39.5447 48 38.1733 48 36.4877V3.50094C48 1.81522 46.6286 0.443848 44.943 0.443848ZM1.875 3.50094C1.875 2.84919 2.40525 2.31894 3.057 2.31894H44.9429C45.5947 2.31894 46.1249 2.84919 46.1249 3.50094V33.1714H43.8779V15.9994C43.8779 15.4818 43.4581 15.0619 42.9404 15.0619C42.4227 15.0619 42.0029 15.4818 42.0029 15.9994V33.1714H5.997V6.44066H42.003V17.5298C42.003 18.0475 42.4228 18.4673 42.9405 18.4673C43.4582 18.4673 43.878 18.0475 43.878 17.5298V5.50316C43.878 4.98547 43.4582 4.56566 42.9405 4.56566H5.0595C4.54181 4.56566 4.122 4.98547 4.122 5.50316V33.1714H1.875V3.50094ZM29.0127 43.6812H18.9873L20.9211 39.5448H27.0789L29.0127 43.6812ZM46.125 36.4877C46.125 37.1395 45.5947 37.6697 44.943 37.6697H3.057C2.40525 37.6697 1.875 37.1395 1.875 36.4877V35.0464H46.125V36.4877Z" fill="#1E1E1E"/>
</svg>
