<svg width="48" height="39" viewBox="0 0 48 39" fill="none" xmlns="http://www.w3.org/2000/svg">
<path d="M43.2454 6.3601H40.3935L37.1202 0.820689C36.9516 0.53522 36.6446 0.360096 36.3131 0.360096H23.3131C22.9815 0.360096 22.6747 0.53522 22.506 0.820689L19.2327 6.3601H13.875V5.2351C13.875 3.37406 12.361 1.8601 10.5 1.8601C8.63897 1.8601 7.125 3.37406 7.125 5.2351V6.3601H4.75462C2.13291 6.3601 0 8.493 0 11.1148V34.2304C0 36.8522 2.13291 38.9851 4.75462 38.9851H43.2453C45.867 38.9851 47.9999 36.8522 47.9999 34.2304V11.1148C48 8.493 45.867 6.3601 43.2454 6.3601ZM23.848 2.2351H35.7781L38.2156 6.3601H21.4105L23.848 2.2351ZM9 5.2351C9 4.40803 9.67294 3.7351 10.5 3.7351C11.3271 3.7351 12 4.40803 12 5.2351V6.3601H9V5.2351ZM46.125 34.2304C46.125 35.8183 44.8332 37.1101 43.2454 37.1101H4.75462C3.16678 37.1101 1.875 35.8182 1.875 34.2304V11.1148C1.875 9.52688 3.16678 8.2351 4.75462 8.2351H43.2453C44.8331 8.2351 46.1249 9.52688 46.1249 11.1148V34.2304H46.125Z" fill="#1E1E1E"/>
</svg>
